<svg width="105" height="54" viewBox="0 0 105 54" fill="none" xmlns="http://www.w3.org/2000/svg">
<g clip-path="url(#clip0_901_266)">
<path d="M51.9834 29.5843C52.9875 28.1537 53.7588 26.5738 54.2686 24.903C52.5242 24.903 50.8984 24.903 49.2517 24.903C49.133 24.903 48.976 25.1014 48.9028 25.2511C46.492 29.7757 42.752 32.3757 37.6513 32.9952C35.8622 33.2086 34.048 33.0316 32.3343 32.4766C34.4589 30.341 36.0508 27.7372 36.9814 24.8752C35.3626 24.8752 33.8659 24.8752 32.3692 24.8752C32.188 24.8559 32.0056 24.8979 31.8512 24.9945C31.6968 25.0911 31.5794 25.2366 31.5179 25.4077C30.6747 27.0591 29.51 28.5263 28.0919 29.7235C27.743 30.0437 27.5023 30.0194 27.1394 29.7235C20.4897 24.2417 20.4897 13.7376 27.1394 8.23141C27.4883 7.92861 27.736 7.90772 28.0988 8.23141C29.534 9.47164 30.7244 10.9684 31.6086 12.6447C31.6993 12.8152 31.8912 13.0484 32.0412 13.0519C33.6635 13.0798 35.2893 13.0519 37.0023 13.0519C36.0603 10.2043 34.4628 7.61648 32.3378 5.49574C32.568 5.4122 32.725 5.33563 32.8925 5.29387C35.5056 4.62944 38.2574 4.75053 40.8017 5.64192C44.2484 6.81375 47.1099 9.26572 48.7911 12.4881C48.9167 12.7143 49.14 13.0415 49.3424 13.0449C50.9472 13.0902 52.5556 13.0693 54.2721 13.0693C54.157 12.7213 54.0942 12.5194 54.0174 12.314C53.0985 9.87445 51.6843 7.65055 49.8635 5.78177C48.0427 3.91299 45.8545 2.43963 43.4361 1.45407C41.0178 0.468517 38.4214 -0.00798695 35.8098 0.0544384C33.1981 0.116864 30.6276 0.716872 28.2593 1.81684C28.0679 1.91951 27.8539 1.97324 27.6366 1.97324C27.4192 1.97324 27.2053 1.91951 27.0138 1.81684C23.4079 0.117151 19.351 -0.385397 15.4379 0.382878C12.797 0.885605 10.2934 1.94274 8.09321 3.48416C5.89302 5.02558 4.04648 7.01606 2.67607 9.32359C1.30566 11.6311 0.442702 14.2029 0.144425 16.8685C-0.153852 19.5341 0.119372 22.2324 0.945976 24.7846C1.77258 27.3368 3.13367 29.6845 4.93898 31.672C6.74428 33.6595 8.95254 35.2414 11.4173 36.3127C13.882 37.384 16.5469 37.9203 19.2353 37.886C21.9236 37.8517 24.5739 37.2476 27.0103 36.1137C27.2023 36.0108 27.4169 35.9569 27.6348 35.9569C27.8528 35.9569 28.0674 36.0108 28.2593 36.1137C31.4027 37.6226 34.9156 38.1954 38.377 37.7635C44.1196 37.0952 48.6655 34.3213 51.9834 29.5843ZM8.27876 28.1434C6.17048 25.6998 4.96797 22.6077 4.8727 19.385C4.77742 16.1623 5.79517 13.0048 7.75544 10.4415C11.8374 5.10592 18.5708 3.97476 22.8761 5.51662C19.1988 9.30689 17.2939 13.7759 17.2939 18.9827C17.2939 24.1895 19.2232 28.655 22.8761 32.4035C19.1325 33.8618 12.5596 33.0926 8.27876 28.1434Z" fill="#005395"/>
<path d="M100.286 6.49462C96.5812 2.31105 91.8783 0.128779 86.3031 0.0522075C80.1244 -0.027844 75.069 2.48856 71.0778 7.24989C70.9766 7.0515 70.8999 6.92272 70.8406 6.7835C68.8833 2.30757 65.4399 0.0522075 60.5625 0.0174025C55.4897 0 50.4134 0 45.3546 0H44.6115C44.4057 0.55688 44.6324 0.741347 45.0581 0.911892C47.1527 1.76363 49.0748 2.98775 50.7309 4.52465C50.8875 4.67891 51.0743 4.79931 51.2795 4.87836C51.4848 4.95741 51.7043 4.99339 51.9241 4.98408C54.8966 4.98408 57.8551 4.95276 60.8416 4.98408C64.0094 5.0154 66.3644 7.14199 66.6854 10.2048C66.8374 11.6126 66.4543 13.026 65.6119 14.1655C64.7695 15.305 63.529 16.0875 62.1359 16.3584C61.0893 16.5637 60.0008 16.4454 58.9297 16.4663C58.3366 16.4663 57.74 16.4663 57.1225 16.4663C57.1225 18.0394 57.1225 19.5047 57.1225 20.97C57.1225 21.419 57.3911 21.4121 57.6946 21.4121C58.7413 21.4121 59.7879 21.4121 60.8346 21.4121C64.0478 21.4851 66.3888 23.6083 66.6924 26.6989C67.0064 29.8906 64.5118 32.8281 61.3405 32.9082C58.3715 32.9812 55.4095 32.9812 52.4265 32.9604C51.6206 32.9604 50.9682 33.0961 50.3925 33.7017C49.9601 34.1542 49.4656 34.5433 48.9237 34.8572C47.5945 35.6299 46.2268 36.3295 44.8836 37.0778C44.7236 37.1968 44.6022 37.3602 44.5348 37.5477C44.5103 37.6034 44.6394 37.8017 44.7266 37.8226C44.9465 37.8611 45.17 37.8751 45.393 37.8644C50.5774 37.8644 55.763 37.8644 60.9497 37.8644C63.0528 37.8894 65.1144 37.2796 66.8639 36.115C68.6134 34.9504 69.9692 33.2854 70.7534 31.3384C70.8406 31.1296 70.9487 30.9278 71.0639 30.6841C78.509 39.8483 91.3863 39.8761 98.8908 32.8733C102.524 29.5255 104.703 24.8944 104.964 19.967C105.225 15.0396 103.546 10.2054 100.286 6.49462ZM86.024 33.0648C83.2312 33.0606 80.5024 32.2306 78.1824 30.6795C75.8625 29.1284 74.0556 26.9259 72.9902 24.3505C71.9248 21.7751 71.6487 18.9424 72.1968 16.2104C72.745 13.4785 74.0927 10.9701 76.0697 9.00217C78.0467 7.03429 80.5641 5.69533 83.3038 5.15457C86.0435 4.61381 88.8824 4.89552 91.4616 5.9641C94.0408 7.03269 96.2445 8.84015 97.7941 11.158C99.3438 13.4759 100.17 16.2 100.168 18.9861C100.151 22.7204 98.6547 26.2965 96.0049 28.934C93.3551 31.5716 89.7672 33.0565 86.024 33.0648Z" fill="#005395"/>
<path d="M40.3835 45.431H39.0752V51.1634H40.401C40.7939 51.1902 41.1883 51.1377 41.5605 51.0091C41.9328 50.8806 42.2752 50.6785 42.5675 50.4151C42.8243 50.1337 43.0226 49.8041 43.1507 49.4456C43.2789 49.0872 43.3344 48.7069 43.3141 48.3268C43.337 47.9396 43.2821 47.5517 43.1527 47.1859C43.0233 46.8202 42.822 46.4839 42.5605 46.1967C42.2698 45.9268 41.9265 45.7196 41.5519 45.5878C41.1774 45.4561 40.7796 45.4027 40.3835 45.431Z" fill="#005395"/>
<path d="M22.9599 45.7547C22.5335 45.5166 22.053 45.3916 21.5644 45.3916C21.0757 45.3916 20.5952 45.5166 20.1688 45.7547C19.7579 45.9942 19.4239 46.3455 19.2059 46.7675C18.974 47.2455 18.8535 47.7697 18.8535 48.3007C18.8535 48.8317 18.974 49.3559 19.2059 49.8339C19.4251 50.258 19.7601 50.6116 20.1723 50.8536C20.5961 51.0864 21.0719 51.2085 21.5557 51.2085C22.0394 51.2085 22.5152 51.0864 22.939 50.8536C23.3512 50.6116 23.6862 50.258 23.9054 49.8339C24.1373 49.3559 24.2578 48.8317 24.2578 48.3007C24.2578 47.7697 24.1373 47.2455 23.9054 46.7675C23.6921 46.3479 23.3644 45.9968 22.9599 45.7547Z" fill="#005395"/>
<path d="M32.8857 45.7547C32.4593 45.5166 31.9788 45.3916 31.4902 45.3916C31.0015 45.3916 30.521 45.5166 30.0946 45.7547C29.6837 45.9942 29.3497 46.3455 29.1317 46.7675C28.8998 47.2455 28.7793 47.7697 28.7793 48.3007C28.7793 48.8317 28.8998 49.3559 29.1317 49.8339C29.3509 50.258 29.6859 50.6116 30.0981 50.8536C30.5218 51.0864 30.9977 51.2085 31.4814 51.2085C31.9652 51.2085 32.441 51.0864 32.8648 50.8536C33.2808 50.6131 33.6196 50.2594 33.8416 49.8339C34.0736 49.3559 34.194 48.8317 34.194 48.3007C34.194 47.7697 34.0736 47.2455 33.8416 46.7675C33.6255 46.3465 33.294 45.9952 32.8857 45.7547Z" fill="#005395"/>
<path d="M75.0482 46.8023C75.0592 46.6171 75.0306 46.4317 74.9645 46.2583C74.8983 46.0849 74.7961 45.9275 74.6645 45.7964C74.3318 45.5368 73.913 45.4125 73.4922 45.4484H72.0967V48.2154H73.4922C73.9173 48.2473 74.3376 48.1096 74.661 47.8325C74.7933 47.6968 74.8961 47.5352 74.9627 47.3579C75.0294 47.1806 75.0585 46.9914 75.0482 46.8023Z" fill="#005395"/>
<path d="M63.7866 49.5624H66.4381L65.1124 45.8696L63.7866 49.5624Z" fill="#005395"/>
<path d="M0 42.4622V47.2687C0.000924432 49.0509 0.711004 50.7599 1.97423 52.0201C3.23745 53.2803 4.95048 53.9887 6.73694 53.9896H98.2526C99.139 53.9914 100.017 53.819 100.837 53.4822C101.656 53.1454 102.401 52.6508 103.029 52.0267C103.657 51.4025 104.155 50.6611 104.496 49.8447C104.837 49.0283 105.013 48.153 105.014 47.2687V42.4622H0ZM13.4146 51.9639H12.3435L10.6375 46.0784L8.87211 51.9639H7.82546L5.77402 44.6549H6.79276L8.37321 50.8537L10.1386 44.6514H11.2096L12.9087 50.8328L14.517 44.6514H15.5637L13.4146 51.9639ZM24.7707 50.2237C24.4586 50.7782 24 51.2369 23.445 51.5498C22.8728 51.8626 22.2309 52.0266 21.5784 52.0266C20.926 52.0266 20.2841 51.8626 19.7119 51.5498C19.1546 51.2355 18.6948 50.7743 18.3827 50.2167C18.0621 49.6256 17.8942 48.9641 17.8942 48.292C17.8942 47.6199 18.0621 46.9584 18.3827 46.3673C18.6953 45.811 19.1551 45.351 19.7119 45.0377C20.2833 44.7227 20.9256 44.5574 21.5784 44.5574C22.2313 44.5574 22.8736 44.7227 23.445 45.0377C24.0007 45.3497 24.4594 45.8086 24.7707 46.3638C25.0869 46.9582 25.2522 47.6208 25.2522 48.2937C25.2522 48.9666 25.0869 49.6293 24.7707 50.2237ZM34.6965 50.2237C34.3843 50.7782 33.9258 51.2369 33.3707 51.5498C32.7986 51.8626 32.1566 52.0266 31.5042 52.0266C30.8517 52.0266 30.2098 51.8626 29.6377 51.5498C29.0804 51.2355 28.6205 50.7743 28.3084 50.2167C27.9878 49.6256 27.8199 48.9641 27.8199 48.292C27.8199 47.6199 27.9878 46.9584 28.3084 46.3673C28.6273 45.8125 29.0933 45.3561 29.6551 45.0482C30.2265 44.7331 30.8687 44.5678 31.5216 44.5678C32.1745 44.5678 32.8167 44.7331 33.3882 45.0482C33.9439 45.3602 34.4026 45.819 34.7139 46.3742C35.0301 46.9686 35.1954 47.6313 35.1954 48.3042C35.1954 48.9771 35.0301 49.6397 34.7139 50.2341L34.6965 50.2237ZM43.8058 50.2585C43.4973 50.8065 43.0271 51.2464 42.4591 51.5184C41.8049 51.8243 41.0881 51.9733 40.3658 51.9535H38.0841V44.6444H40.3658C41.0897 44.6238 41.8078 44.7778 42.4591 45.0934C43.0273 45.3717 43.4971 45.816 43.8058 46.3673C44.1132 46.9706 44.2734 47.6378 44.2734 48.3146C44.2734 48.9914 44.1132 49.6586 43.8058 50.262V50.2585ZM59.0974 51.9535H58.1414V46.5517L55.7237 51.9639H55.0503L52.6082 46.5413V51.9639H51.6522V44.7071H52.6814L55.3748 50.704L58.0647 44.7071H59.0834L59.0974 51.9535ZM67.2996 51.9535L66.71 50.3281H63.5143L62.9246 51.9535H61.9164L64.5644 44.6862H65.6704L68.3079 51.9535H67.2996ZM74.9751 51.9535L73.2307 48.9637H72.0724V51.9535H71.1164V44.6444H73.4819C73.9628 44.6317 74.4403 44.7293 74.8774 44.9298C75.2342 45.0931 75.5333 45.36 75.7356 45.6955C75.945 46.0741 76.0418 46.5045 76.0146 46.936C75.9874 47.3676 75.8374 47.7824 75.5821 48.1319C75.256 48.5398 74.7899 48.8126 74.2738 48.8976L76.1124 51.9604L74.9751 51.9535ZM83.1459 51.9535L80.1281 48.6192V51.9535H79.1966V44.6444H80.156V48.031L83.1843 44.641H84.3915L81.0701 48.3024L84.4229 51.9535H83.1459ZM91.0726 45.4206H88.0861V47.8569H90.7551V48.6435H88.0861V51.1634H91.0726V51.95H87.1302V44.641H91.0726V45.4206ZM98.6957 45.4206H96.6966V51.9639H95.7406V45.431H93.7311V44.6514H98.6957V45.4206Z" fill="#005395"/>
</g>
<defs>
<clipPath id="clip0_901_266">
<rect width="105" height="54" fill="white"/>
</clipPath>
</defs>
</svg>
