<svg width="73" height="50" viewBox="0 0 73 50" fill="none" xmlns="http://www.w3.org/2000/svg">
<path d="M17.876 29.5963V41.6974H59.8318C61.0305 41.6974 62.0023 40.7123 62.0023 39.4972C62.0023 38.429 62.0023 30.6626 62.0023 29.5963L39.939 26.6626L17.876 29.5963Z" fill="#8B9BA9"/>
<path d="M57.6612 29.0098V37.2972H17.876V41.6976H59.8318C61.0305 41.6976 62.0023 40.7125 62.0023 39.4974C62.0023 38.485 62.0023 30.5895 62.0023 29.5965L57.6612 29.0098Z" fill="#6C7A88"/>
<path d="M63.9565 0.601807H24.3886C23.1899 0.601807 22.2182 1.58691 22.2182 2.802V9.65856H7.74331C5.71291 9.65856 3.95368 11.0855 3.50816 13.0935L1.8654 20.4988C1.44346 22.4009 1.23047 24.3447 1.23047 26.2944V41.6971H22.2182C22.2182 41.3391 22.2182 35.8972 22.2182 29.596H63.9566C65.1553 29.596 66.1271 28.6109 66.1271 27.3958V2.802C66.127 1.58676 65.1553 0.601807 63.9565 0.601807V0.601807Z" fill="#FF7E40"/>
<path d="M71.9153 20.1472H66.1271V16.199H69.0212C69.6207 16.199 70.1064 15.7065 70.1064 15.0989C70.1064 14.4914 69.6207 13.9988 69.0212 13.9988H66.1271V10.0506H70.4682C71.0677 10.0506 71.5534 9.55808 71.5534 8.95053C71.5534 8.34298 71.0677 7.85043 70.4682 7.85043H66.1271V3.9021H71.9153C72.5148 3.9021 73.0005 3.40955 73.0005 2.80201C73.0005 2.19446 72.5148 1.70191 71.9153 1.70191H65.8344C65.4589 1.04493 64.7596 0.601807 63.9566 0.601807H61.7862V25.1958H22.2182C22.2182 17.4559 22.2182 9.86743 22.2182 9.65841H17.8772V29.5962H14.6215C11.4576 29.5962 8.57938 30.8528 6.44103 32.8965H1.23047V41.6973H22.2182C22.2182 41.3988 22.2182 35.932 22.2182 29.5962H35.596H63.9566C64.7596 29.5962 65.4589 29.153 65.8344 28.4961H70.4682C71.0677 28.4961 71.5534 28.0035 71.5534 27.396C71.5534 26.7884 71.0677 26.2959 70.4682 26.2959H66.1271V22.3475H71.9153C72.5148 22.3475 73.0005 21.855 73.0005 21.2474C73.0005 20.6399 72.5148 20.1472 71.9153 20.1472V20.1472Z" fill="#FF6344"/>
<path d="M1.08523 41.697H9.02856V37.2966H1.08523C0.485895 37.2966 0 37.7892 0 38.3967V40.5969C0 41.2046 0.485895 41.697 1.08523 41.697Z" fill="#8B9BA9"/>
<path d="M17.8772 14.0588H7.48443L5.4209 23.3608H17.8772V14.0588Z" fill="#9DC6FB"/>
<path d="M13.7951 18.9604H6.39703L5.4209 23.3608H17.8772V14.0588H13.7951V18.9604Z" fill="#80B4FB"/>
<path d="M51.5117 49.3977C55.7072 49.3977 59.1083 45.95 59.1083 41.697C59.1083 37.4441 55.7072 33.9963 51.5117 33.9963C47.3162 33.9963 43.915 37.4441 43.915 41.697C43.915 45.95 47.3162 49.3977 51.5117 49.3977Z" fill="#4D5967"/>
<path d="M53.0652 34.1587C52.1747 35.8263 52.4237 37.9537 53.8143 39.3632L49.21 44.0306C47.8196 42.621 45.7209 42.3684 44.0757 43.2712C44.7945 46.7647 47.8555 49.3976 51.5121 49.3976C55.701 49.3976 59.1088 45.9431 59.1088 41.6969C59.1086 37.9901 56.5114 34.8874 53.0652 34.1587Z" fill="#35404A"/>
<path d="M51.5116 44.9976C53.3096 44.9976 54.7673 43.52 54.7673 41.6973C54.7673 39.8746 53.3096 38.397 51.5116 38.397C49.7135 38.397 48.2559 39.8746 48.2559 41.6973C48.2559 43.52 49.7135 44.9976 51.5116 44.9976Z" fill="#FFF9EB"/>
<path d="M14.621 49.3977C18.8166 49.3977 22.2177 45.95 22.2177 41.697C22.2177 37.4441 18.8166 33.9963 14.621 33.9963C10.4255 33.9963 7.02441 37.4441 7.02441 41.697C7.02441 45.95 10.4255 49.3977 14.621 49.3977Z" fill="#4D5967"/>
<path d="M16.1745 34.1587C15.2841 35.8263 15.5331 37.9537 16.9236 39.3632L12.3194 44.0306C10.929 42.621 8.83027 42.3684 7.18506 43.2712C7.90392 46.7647 10.9649 49.3976 14.6215 49.3976C18.8104 49.3976 22.2181 45.9431 22.2181 41.6969C22.2181 37.9901 19.621 34.8874 16.1745 34.1587Z" fill="#35404A"/>
<path d="M14.6209 44.9976C16.419 44.9976 17.8766 43.52 17.8766 41.6973C17.8766 39.8746 16.419 38.397 14.6209 38.397C12.8229 38.397 11.3652 39.8746 11.3652 41.6973C11.3652 43.52 12.8229 44.9976 14.6209 44.9976Z" fill="#FFF9EB"/>
</svg>
