<svg width="55" height="56" viewBox="0 0 55 56" fill="none" xmlns="http://www.w3.org/2000/svg">
<g clip-path="url(#clip0_901_618)">
<path d="M54.7053 20.9204C54.5004 20.6964 54.2052 20.5809 53.9046 20.5809H50.6055C49.2733 14.9675 46.158 9.88061 41.7582 6.1705C37.0425 2.19439 31.0687 0.00328125 24.9355 0C24.8345 0 24.7326 0.0219844 24.6466 0.0759063C24.4144 0.221484 24.3312 0.500391 24.4189 0.738828L27.364 8.74147C27.4425 8.95508 27.643 9.0965 27.867 9.0965C34.8314 9.0965 40.9338 13.8576 42.8149 20.5809H39.9822C39.6815 20.5809 39.3865 20.6964 39.1816 20.9204C38.7955 21.3426 38.7975 21.9614 39.1357 22.3747L46.1182 30.906C46.3223 31.1554 46.6247 31.2996 46.9435 31.2996C47.2623 31.2996 47.5646 31.1555 47.7688 30.906L54.7512 22.3747C55.0894 21.9614 55.0912 21.3426 54.7053 20.9204Z" fill="#507BE9"/>
<path d="M24.3848 25.7031C30.9108 25.7031 36.2012 20.3166 36.2012 13.6719C36.2012 7.0272 30.9108 1.64062 24.3848 1.64062C17.8587 1.64062 12.5684 7.0272 12.5684 13.6719C12.5684 20.3166 17.8587 25.7031 24.3848 25.7031Z" fill="#FFEE78"/>
<path d="M36.2012 13.6719C36.2012 7.02723 30.9108 1.64062 24.3848 1.64062V25.7031C30.9108 25.7031 36.2012 20.3165 36.2012 13.6719Z" fill="#FCD232"/>
<path d="M24.3848 27.3438C16.9807 27.3438 10.957 21.2105 10.957 13.6719C10.957 6.1332 16.9807 0 24.3848 0C31.7888 0 37.8125 6.1332 37.8125 13.6719C37.8125 21.2105 31.7888 27.3438 24.3848 27.3438ZM24.3848 3.28125C18.7577 3.28125 14.1797 7.94248 14.1797 13.6719C14.1797 19.4013 18.7577 24.0625 24.3848 24.0625C30.0118 24.0625 34.5898 19.4013 34.5898 13.6719C34.5898 7.94248 30.0118 3.28125 24.3848 3.28125Z" fill="#FCD232"/>
<path d="M34.5898 13.6719C34.5898 19.4013 30.0118 24.0625 24.3848 24.0625V27.3438C31.7888 27.3438 37.8125 21.2105 37.8125 13.6719C37.8125 6.1332 31.7888 0 24.3848 0V3.28125C30.0118 3.28125 34.5898 7.94248 34.5898 13.6719Z" fill="#F7B90F"/>
<path d="M28.6816 16.4062C28.6816 13.9939 26.7541 12.0312 24.3848 12.0312C23.7924 12.0312 23.3105 11.5406 23.3105 10.9375C23.3105 10.3344 23.7924 9.84375 24.3848 9.84375C24.8935 9.84375 25.3361 10.211 25.4371 10.7171C25.6141 11.605 26.4652 12.1787 27.3369 11.9984C28.209 11.8181 28.7724 10.952 28.5954 10.064C28.3031 8.59884 27.2983 7.42416 25.9961 6.88428V6.5625C25.9961 5.65644 25.2746 4.92188 24.3848 4.92188C23.4949 4.92188 22.7734 5.65644 22.7734 6.5625V6.88286C21.2005 7.53331 20.0879 9.10514 20.0879 10.9375C20.0879 13.3499 22.0155 15.3125 24.3848 15.3125C24.9771 15.3125 25.459 15.8032 25.459 16.4062C25.459 17.0093 24.9771 17.5 24.3848 17.5C23.876 17.5 23.4334 17.1327 23.3325 16.6266C23.1554 15.7387 22.305 15.1653 21.4326 15.3453C20.5604 15.5257 19.9971 16.3917 20.1741 17.2797C20.4664 18.7449 21.4713 19.9197 22.7733 20.4596V20.7812C22.7733 21.6873 23.4948 22.4219 24.3847 22.4219C25.2745 22.4219 25.996 21.6873 25.996 20.7812V20.4609C27.5691 19.8104 28.6816 18.2385 28.6816 16.4062Z" fill="#FCD232"/>
<path d="M24.3848 12.0312V15.3125C24.9771 15.3125 25.459 15.8032 25.459 16.4062C25.459 17.0093 24.9771 17.5 24.3848 17.5V22.4219C25.2746 22.4219 25.9961 21.6873 25.9961 20.7812V20.4609C27.5691 19.8104 28.6816 18.2386 28.6816 16.4062C28.6816 13.9939 26.7541 12.0312 24.3848 12.0312Z" fill="#F7B90F"/>
<path d="M25.4371 10.7171C25.6141 11.605 26.4652 12.1787 27.3369 11.9984C28.209 11.8181 28.7724 10.952 28.5954 10.064C28.3031 8.59884 27.2983 7.42416 25.9961 6.88428V6.5625C25.9961 5.65644 25.2746 4.92188 24.3848 4.92188V9.84375C24.8935 9.84375 25.3361 10.211 25.4371 10.7171Z" fill="#F7B90F"/>
<path d="M54.3197 38.3847C53.1287 36.6528 50.7843 36.2319 49.0834 37.4446L37.5577 45.6617C37.1062 45.9836 36.5684 46.1562 36.0174 46.1562H27.5V53.8124H36.6947C38.3481 53.8124 39.9614 53.2945 41.3157 52.3289L53.3963 43.7161C55.0973 42.5035 55.5108 40.1165 54.3197 38.3847Z" fill="#FABE8C"/>
<path d="M37.5577 45.662C37.1062 45.9839 36.5684 46.1565 36.0174 46.1565L27.5 45.484V49.4377H36.2012C40.0513 49.4377 43.1836 46.2485 43.1836 42.3284C43.1836 42.1073 43.1722 41.889 43.1528 41.6731L37.5577 45.662Z" fill="#E6A578"/>
<path d="M54.3197 38.3847C53.1287 36.6529 50.7843 36.232 49.0834 37.4446L39.39 44.3555C39.7514 43.7674 39.9609 43.0729 39.9609 42.3281C39.9609 40.2139 38.2776 38.5 36.2012 38.5H27.0703L26.0193 37.6974C23.9262 36.099 21.3326 35.2188 18.7161 35.2188C16.5104 35.2188 14.345 35.8294 12.4537 36.9848C12.4537 36.9848 10.6618 38.0796 9.59073 38.7338C9.1054 39.0304 8.80859 39.5643 8.80859 40.1406V52.1719C8.80859 53.0779 9.53004 53.8125 10.4199 53.8125H36.6947C38.3481 53.8125 39.9614 53.2946 41.3157 52.3289L53.3963 43.7162C55.0973 42.5036 55.5108 40.1166 54.3197 38.3847Z" fill="#FFD2AA"/>
<path d="M27.5 53.8124H36.6947C38.3481 53.8124 39.9614 53.2945 41.3157 52.3289L53.3963 43.7161C55.0972 42.5035 55.5106 40.1165 54.3196 38.3847C53.1286 36.6528 50.7842 36.2319 49.0833 37.4446L39.3899 44.3554C39.7514 43.7673 39.9609 43.0728 39.9609 42.3281C39.9609 40.2138 38.2776 38.4999 36.2012 38.4999H27.5V53.8124Z" fill="#FABE8C"/>
<path d="M43.1528 41.6731L39.39 44.3557C39.3667 44.3937 39.3434 44.4318 39.3188 44.4687C38.6432 45.487 37.4989 46.1565 36.2012 46.1565H24.9219C24.032 46.1565 23.3105 46.891 23.3105 47.7971C23.3105 48.7032 24.032 49.4377 24.9219 49.4377H36.2012C40.0513 49.4377 43.1836 46.2485 43.1836 42.3284C43.1836 42.1073 43.1722 41.889 43.1528 41.6731Z" fill="#FABE8C"/>
<path d="M10.4199 56H1.61133C0.721445 56 0 55.2654 0 54.3594V35.7656C0 34.8596 0.721445 34.125 1.61133 34.125H10.4199C11.3098 34.125 12.0312 34.8596 12.0312 35.7656V54.3594C12.0312 55.2654 11.3098 56 10.4199 56Z" fill="#6496F7"/>
<path d="M43.1528 41.6731L39.39 44.3557C39.3667 44.3937 39.3434 44.4318 39.3188 44.4687C38.6432 45.487 37.4989 46.1565 36.2012 46.1565H27.5V49.4377H36.2012C40.0513 49.4377 43.1836 46.2485 43.1836 42.3284C43.1836 42.1073 43.1722 41.889 43.1528 41.6731Z" fill="#E6A578"/>
</g>
<defs>
<clipPath id="clip0_901_618">
<rect width="55" height="56" fill="white"/>
</clipPath>
</defs>
</svg>
