<svg width="61" height="61" viewBox="0 0 61 61" fill="none" xmlns="http://www.w3.org/2000/svg">
<g clip-path="url(#clip0_901_634)">
<path d="M14.8216 33.9646L7.5332 54.6315L14.866 54.5601L23.9093 33.9646H14.8216Z" fill="#80AAFF"/>
<path d="M23.9087 33.9646L18.2178 55.7116L23.9494 60.4212L30.2101 42.1028V33.9646H23.9087Z" fill="#80AAFF"/>
<path d="M21.93 33.9646L14.8662 54.5601L16.7943 54.5414L18.2186 55.7116L25.6773 33.9646H21.93Z" fill="#EAF1FF"/>
<path d="M45.5999 33.9646L52.8883 54.6315L45.5555 54.5601L36.5122 33.9646H45.5999Z" fill="#6680FF"/>
<path d="M36.5124 33.9646L42.2033 55.7116L36.4717 60.4212L30.2109 42.1028V33.9646H36.5124Z" fill="#6680FF"/>
<path d="M38.4915 33.9646L45.5552 54.5601L43.6271 54.5414L42.2029 55.7116L34.7441 33.9646H38.4915Z" fill="#B3CCFF"/>
<path d="M30.21 1.77197L28.9497 21.4246L30.21 40.329C40.8574 40.329 49.4886 31.6978 49.4886 21.0506C49.4886 10.4033 40.8574 1.77197 30.21 1.77197Z" fill="#EAF1FF"/>
<path d="M10.9316 21.0506C10.9316 31.6978 19.5629 40.329 30.2102 40.329V1.77197C19.5629 1.77197 10.9316 10.4033 10.9316 21.0506Z" fill="#F9F9F9"/>
<path d="M51.2609 21.0509C51.2609 9.44334 41.8175 0 30.21 0L28.9497 1.26033L30.21 3.54458C39.863 3.54458 47.7164 11.3978 47.7164 21.0509C47.7164 30.7038 39.863 38.5571 30.21 38.5571L28.9497 40.3294L30.21 42.1017C41.8175 42.1017 51.2609 32.6583 51.2609 21.0509Z" fill="#FDAE02"/>
<path d="M30.2104 38.5571C20.5575 38.5571 12.7042 30.7038 12.7042 21.0509C12.7042 11.3978 20.5575 3.54458 30.2104 3.54458V0C18.603 0 9.15967 9.44334 9.15967 21.0509C9.15967 32.6583 18.603 42.1017 30.2104 42.1017V38.5571Z" fill="#FDCB02"/>
<path d="M40.8053 14.0313L35.2871 15.8356L30.2109 11.5415L28.9507 20.1644L30.2109 29.0652H40.8053V14.0313Z" fill="#FD9002"/>
<path d="M30.211 11.5415L25.1349 15.8356L19.6167 14.0313V29.0652H30.211V11.5415Z" fill="#FDAE02"/>
</g>
<defs>
<clipPath id="clip0_901_634">
<rect width="60.421" height="60.421" fill="white"/>
</clipPath>
</defs>
</svg>
