<svg width="61" height="61" viewBox="0 0 61 61" fill="none" xmlns="http://www.w3.org/2000/svg">
<g clip-path="url(#clip0_901_654)">
<path d="M56.9408 22.389L57.8446 20.7585C58.0852 20.3243 57.9283 19.7773 57.4942 19.5368C57.1327 19.3364 56.6939 19.4125 56.4179 19.6936C52.4791 7.99957 41.4802 0.00292969 28.9681 0.00292969C21.2304 0.00292969 13.9559 3.01609 8.48457 8.4875C3.01316 13.9589 0 21.2334 0 28.971C0 35.5568 2.15401 41.763 6.22895 46.9185C10.1812 51.9187 15.7432 55.5226 21.8904 57.0665C23.2101 57.3979 24.5772 57.6032 26.07 57.6939C26.0886 57.695 26.107 57.6956 26.1254 57.6956C26.5969 57.6956 26.9925 57.3283 27.0215 56.8514C27.0516 56.3559 26.6745 55.93 26.179 55.8998C24.7985 55.816 23.5389 55.6273 22.3283 55.3232C10.24 52.2872 1.7974 41.4509 1.7974 28.971C1.7974 13.9891 13.9862 1.80033 28.9681 1.80033C40.6674 1.80033 50.9562 9.25344 54.6801 20.165C54.3128 20.1003 53.9292 20.2695 53.7383 20.6137C53.4977 21.0477 53.6546 21.5949 54.0886 21.8354L55.6938 22.7252C55.7416 22.7537 56.0528 22.9324 56.4287 22.8122C56.7569 22.7076 56.9087 22.4473 56.9408 22.389Z" fill="#D3CDBF"/>
<path d="M44.2552 9.38829L9.50542 44.1381C9.15444 44.4891 9.15444 45.0581 9.50542 45.4091C9.68084 45.5845 9.91091 45.6722 10.1409 45.6722C10.3708 45.6722 10.6009 45.5845 10.7763 45.4091L45.5261 10.6593C45.877 10.3082 45.877 9.73927 45.5261 9.38829C45.1751 9.03756 44.606 9.03756 44.2552 9.38829Z" fill="#D3CDBF"/>
<path d="M11.5007 15.2769C7.81653 15.2769 6.56471 20.0723 8.50734 20.0723C9.00342 20.0723 9.40604 19.6703 9.40604 19.1736C9.40604 18.0186 10.3457 17.079 11.5006 17.079C13.4274 17.079 14.3324 19.4813 12.8763 20.7533L7.91359 25.0897C7.29026 25.6344 7.67682 26.6651 8.50494 26.6651H14.4963C14.9926 26.6651 15.395 26.2581 15.395 25.7617C15.395 25.2653 14.9926 24.863 14.4963 24.863H10.9079L14.0619 22.1105C16.7612 19.7547 15.0962 15.2769 11.5007 15.2769Z" fill="#46525E"/>
<path d="M24.4408 22.4663H22.9475L22.9428 16.1769C22.9423 15.6808 22.5402 15.2791 22.0441 15.2791C21.548 15.2791 21.1454 15.6812 21.1454 16.1778V22.4663H17.9217C17.9403 22.4128 19.4083 18.1973 19.4228 18.1427C19.7413 16.9303 18.0887 16.4981 17.7203 17.5598L15.8052 23.0749C15.6027 23.6584 16.0367 24.2683 16.6542 24.2683H21.1452C21.1449 25.8072 21.068 26.0604 21.4095 26.4016C21.9748 26.9673 22.9474 26.5619 22.9474 25.7639V24.2685H24.4406C24.9371 24.2685 25.3393 23.8662 25.3393 23.3698C25.3395 22.8551 24.9255 22.4663 24.4408 22.4663Z" fill="#46525E"/>
<path d="M39.0401 30.0779C38.8766 29.8133 38.5877 29.6523 38.2766 29.6523H32.7727C32.2769 29.6523 31.875 30.0542 31.875 30.5501C31.875 31.0459 32.2769 31.4478 32.7727 31.4478H36.825L32.685 39.7416C32.4636 40.1852 32.6437 40.7243 33.0873 40.9458C33.2161 41.0101 33.3528 41.0406 33.4875 41.0406C33.817 41.0406 34.1343 40.8584 34.2914 40.5436L39.0798 30.9511C39.2188 30.6727 39.2038 30.3424 39.0401 30.0779Z" fill="#46525E"/>
<path d="M52.5196 25.4C50.9721 25.6814 49.848 27.0291 49.848 28.6019V31.5567C49.848 33.13 50.9732 34.4782 52.5211 34.7596L52.8803 34.8249C51.2428 43.6151 44.4983 50.6315 35.8528 52.6666C35.6328 51.0536 34.2552 49.851 32.6272 49.851H28.7241C27.0962 49.851 25.7187 51.0532 25.4988 52.6661C24.8592 57.3567 28.4666 60.6314 32.3915 60.4068C47.517 59.5415 59.6185 47.4063 60.4118 32.2463C60.6276 28.1214 57.0248 24.5809 52.5196 25.4Z" fill="#6C7A88"/>
<path d="M32.3913 60.4066C47.5168 59.5413 59.6184 47.4061 60.4116 32.2461C60.4775 30.9862 60.1857 29.7817 59.6223 28.7385C58.0877 29.0819 56.9079 30.4118 56.8217 32.0584C56.123 45.4101 45.532 56.0544 32.186 56.8178C30.5413 56.9118 29.2193 58.098 28.8813 59.6313C29.9362 60.1966 31.1475 60.4778 32.3913 60.4066Z" fill="#596775"/>
</g>
<defs>
<clipPath id="clip0_901_654">
<rect width="60.421" height="60.421" fill="white"/>
</clipPath>
</defs>
</svg>
